<?xml version="1.0" standalone="no"?><!DOCTYPE svg PUBLIC "-//W3C//DTD SVG 1.1//EN" "http://www.w3.org/Graphics/SVG/1.1/DTD/svg11.dtd"><svg t="1521446770723" class="icon" style="" viewBox="0 0 1024 1024" version="1.1" xmlns="http://www.w3.org/2000/svg" p-id="1921" xmlns:xlink="http://www.w3.org/1999/xlink" width="32" height="32"><defs><style type="text/css"></style></defs><path d="M518.848 449.152l414.272 0q6.848 38.272 6.848 73.152 0 124-52 221.44t-148.288 152.288-220.864 54.848q-89.728 0-170.848-34.56t-140-93.44-93.44-140-34.56-170.848 34.56-170.848 93.44-140 140-93.44 170.848-34.56q171.424 0 294.272 114.848l-119.424 114.848q-70.272-68-174.848-68-73.728 0-136.288 37.152t-99.136 100.864-36.576 139.136 36.576 139.136 99.136 100.864 136.288 37.152q49.728 0 91.424-13.728t68.576-34.272 46.848-46.848 29.44-49.728 12.864-44.576l-249.152 0 0-150.848z" p-id="1922" fill="#ffffff"></path></svg>