<?xml version="1.0" standalone="no"?><!DOCTYPE svg PUBLIC "-//W3C//DTD SVG 1.1//EN" "http://www.w3.org/Graphics/SVG/1.1/DTD/svg11.dtd"><svg t="1521433931348" class="icon" style="" viewBox="0 0 1024 1024" version="1.1" xmlns="http://www.w3.org/2000/svg" p-id="18966" xmlns:xlink="http://www.w3.org/1999/xlink" width="32" height="32"><defs><style type="text/css"></style></defs><path d="M853.333333 298.666667l-44.8 0c2.133333 6.4 2.133333 14.933333 2.133333 21.333333l0 490.666667c0 46.933333-38.4 85.333333-85.333333 85.333333L298.666667 896c-46.933333 0-85.333333-38.4-85.333333-85.333333L213.333333 320c0-6.4 2.133333-14.933333 2.133333-21.333333L170.666667 298.666667c-12.8 0-21.333333-8.533333-21.333333-21.333333s8.533333-21.333333 21.333333-21.333333l149.333333 0L320 170.666667c0-23.466667 19.2-42.666667 42.666667-42.666667l320 0c23.466667 0 42.666667 19.2 42.666667 42.666667l0 85.333333 128 0c12.8 0 21.333333 8.533333 21.333333 21.333333S866.133333 298.666667 853.333333 298.666667zM682.666667 170.666667 362.666667 170.666667l0 85.333333 320 0L682.666667 170.666667zM256 298.666667l0 512c0 23.466667 19.2 42.666667 42.666667 42.666667l426.666667 0c23.466667 0 42.666667-19.2 42.666667-42.666667L768 298.666667 256 298.666667zM661.333333 725.333333c-12.8 0-21.333333-8.533333-21.333333-21.333333L640 426.666667c0-12.8 8.533333-21.333333 21.333333-21.333333s21.333333 8.533333 21.333333 21.333333l0 277.333333C682.666667 716.8 674.133333 725.333333 661.333333 725.333333zM512 746.666667c-12.8 0-21.333333-8.533333-21.333333-21.333333L490.666667 405.333333c0-12.8 8.533333-21.333333 21.333333-21.333333s21.333333 8.533333 21.333333 21.333333l0 320C533.333333 738.133333 524.8 746.666667 512 746.666667zM362.666667 725.333333c-12.8 0-21.333333-8.533333-21.333333-21.333333L341.333333 426.666667c0-12.8 8.533333-21.333333 21.333333-21.333333 12.8 0 21.333333 8.533333 21.333333 21.333333l0 277.333333C384 716.8 375.466667 725.333333 362.666667 725.333333z" p-id="18967" fill="#ffffff"></path></svg>