<?xml version="1.0" standalone="no"?><!DOCTYPE svg PUBLIC "-//W3C//DTD SVG 1.1//EN" "http://www.w3.org/Graphics/SVG/1.1/DTD/svg11.dtd"><svg t="1521399294950" class="icon" style="" viewBox="0 0 1024 1024" version="1.1" xmlns="http://www.w3.org/2000/svg" p-id="12126" xmlns:xlink="http://www.w3.org/1999/xlink" width="32" height="32"><defs><style type="text/css"></style></defs><path d="M448 256l-64 0 0 64 64 0 0-64zM448 128l-64 0 0 64 64 0 0-64zM832 0c-32 0-608 0-640 0s-64 32-64 64 0 736 0 768 32 64 64 64 128 0 128 0l0 128 96-96 96 96 0-128s288 0 320 0 64-32 64-64 0-736 0-768-32-64-64-64zM832 800c0 16-15.008 32-32 32s-288 0-288 0l0-64-192 0 0 64s-79.008 0-96 0-32-16.992-32-32 0-96 0-96l640 0s0 80 0 96zM832 640l-512 0 0-576 512.992 0-0.992 576zM448 512l-64 0 0 64 64 0 0-64zM448 384l-64 0 0 64 64 0 0-64z" p-id="12127" fill="#ffffff"></path></svg>