<?xml version="1.0" standalone="no"?><!DOCTYPE svg PUBLIC "-//W3C//DTD SVG 1.1//EN" "http://www.w3.org/Graphics/SVG/1.1/DTD/svg11.dtd"><svg t="1521737775501" class="icon" style="" viewBox="0 0 1024 1024" version="1.1" xmlns="http://www.w3.org/2000/svg" p-id="6111" xmlns:xlink="http://www.w3.org/1999/xlink" width="32" height="32"><defs><style type="text/css"></style></defs><path d="M398.904889 170.666667c124.757333 0 226.247111 102.058667 226.247111 227.555555 0 47.274667-14.506667 92.728889-41.927111 131.527111l-22.300445 31.459556-31.288888 22.357333A223.630222 223.630222 0 0 1 398.904889 625.777778c-124.757333 0-226.247111-102.058667-226.247111-227.555556s101.489778-227.555556 226.247111-227.555555z m0-113.777778C211.456 56.888889 59.505778 209.692444 59.505778 398.222222s151.950222 341.333333 339.399111 341.333334a335.758222 335.758222 0 0 0 196.323555-63.260445l272.554667 274.147556a56.32 56.32 0 0 0 80.156445 0 57.173333 57.173333 0 0 0 0-80.554667l-272.554667-274.147556a340.536889 340.536889 0 0 0 62.862222-197.461333c0-188.529778-151.950222-341.333333-339.342222-341.333333z" fill="" p-id="6112"></path></svg>