<?xml version="1.0" standalone="no"?><!DOCTYPE svg PUBLIC "-//W3C//DTD SVG 1.1//EN" "http://www.w3.org/Graphics/SVG/1.1/DTD/svg11.dtd"><svg t="1521400484023" class="icon" style="" viewBox="0 0 1024 1024" version="1.1" xmlns="http://www.w3.org/2000/svg" p-id="16710" xmlns:xlink="http://www.w3.org/1999/xlink" width="32" height="32"><defs><style type="text/css"></style></defs><path d="M167.054 276.556c10.909-5.682 24.538-1.365 29.988 9.772 1.594 2.951 129.94 249.427 353.473 384.137 154.706 93.37 312.587 167.197 398.681 205.364 7.724-30.218-15.675-43.387-82.688-110.407-39.299-39.3-96.549-111.769-157.203-185.596-61.105 21.357-136.523 22.489-151.971 22.489h-1.364c-12.269 0-22.26-9.994-22.26-22.489 0-12.268 9.994-22.259 22.26-22.259h0.228c2.496 0 37.935-0.228 77.917-6.138 16.13-2.497 30.898-5.456 44.070-9.089-15.22-18.172-30.439-36.119-45.431-53.153-30.898 3.634-63.38 4.766-92.458 4.766-53.159 0-95.639-3.861-99.047-4.313-12.268-1.137-21.356-12.038-19.991-24.307 1.132-12.269 12.039-21.356 24.308-20.22 1.131 0 75.646 7.042 149.701 2.497-25.218-26.804-49.296-50.429-71.329-67.923-105.637-84.964-260.564-151.978-363.246-147.434l-58.151-149.93c-3.634-9.542-14.315-14.543-24.080-11.359-10.452 3.407-15.903 14.994-11.813 25.213l58.153 150.839c0 0-160.837 235.347 154.93 473.425 277.831 209.676 560.429 223.308 640.166 191.049-89.509-39.982-242.614-112.675-392.777-203.089-235.122-141.53-364.833-391.412-370.286-402.089-4.998-10.681-0.682-24.081 10.22-29.762v0zM167.054 276.556z" p-id="16711"></path></svg>