<?xml version="1.0" standalone="no"?><!DOCTYPE svg PUBLIC "-//W3C//DTD SVG 1.1//EN" "http://www.w3.org/Graphics/SVG/1.1/DTD/svg11.dtd"><svg t="1521400109895" class="icon" style="" viewBox="0 0 1024 1024" version="1.1" xmlns="http://www.w3.org/2000/svg" p-id="16511" xmlns:xlink="http://www.w3.org/1999/xlink" width="32" height="32"><defs><style type="text/css"></style></defs><path d="M575.285691 490.857143q4.571429 36-28.857142 57.714286T482.714263 552q-22.285714-9.714286-30.571429-33.142857t-0.285714-46.857143 29.714286-33.142857q20.571429-10.285714 41.428571-6.857143t36.571429 20.285714T575.285691 490.857143z m63.428572-12q-8-61.142857-64.571429-93.714286t-112.571428-7.428571q-36 16-57.428572 50.571428T384.428549 502.285714q2.285714 52 44.285714 88.571429t94.571428 32q52-4.571429 86.857143-48t28.571429-96z m136.571428-309.714286q-11.428571-15.428571-32-25.428571t-33.142857-12.571429-40.571428-7.142857q-166.285714-26.857143-323.428572 1.142857-24.571429 4-37.714285 6.857143t-31.428572 12.571429-28.571428 24.571428q17.142857 16 43.428571 26t42 12.571429T383.85712 214.285714q130.285714 16.571429 256 0.571429 36-4.571429 51.142857-6.857143t41.428572-12.285714 42.857142-26.571429z m32.571429 591.428572q-4.571429 14.857143-8.857143 43.714285t-8 48-16.285714 40-33.142857 32.285715q-49.142857 27.428571-108.285715 40.857142t-115.428571 12.571429T402.714263 967.428571q-26.285714-4.571429-46.571429-10.285714t-43.714285-15.428571-41.714286-24.857143-29.714286-35.142857q-14.285714-54.857143-32.571428-166.857143l3.428571-9.142857 10.285714-5.142857q127.428571 84.571429 289.428572 84.571428t290-84.571428q12 3.428571 13.714285 13.142857t-2.857142 25.714285-4.571429 21.142858z m103.428571-549.142858q-14.857143 95.428571-63.428571 374.285715-2.857143 17.142857-15.428571 32t-24.857143 22.857143-31.142857 17.714285q-144 72-348.571429 50.285715-141.714286-15.428571-225.142857-79.428572-8.571429-6.857143-14.571429-15.142857t-9.714285-20-5.142858-19.428571-3.428571-22.571429-3.142857-20q-5.142857-28.571429-15.142857-85.714286t-16-92.285714T122.142834 269.714286 109.571406 179.428571q1.714286-14.857143 10-27.714285T137.571406 130.285714t25.714285-17.142857 26.285715-12.857143 27.428571-10.571428q71.428571-26.285714 178.857143-36.571429 216.571429-21.142857 386.285714 28.571429 88.571429 26.285714 122.857143 69.714285 9.142857 11.428571 9.428572 29.142858t-3.142858 30.857142z" p-id="16512"></path></svg>