<?xml version="1.0" standalone="no"?><!DOCTYPE svg PUBLIC "-//W3C//DTD SVG 1.1//EN" "http://www.w3.org/Graphics/SVG/1.1/DTD/svg11.dtd"><svg t="1521399991208" class="icon" style="" viewBox="0 0 1024 1024" version="1.1" xmlns="http://www.w3.org/2000/svg" p-id="16181" xmlns:xlink="http://www.w3.org/1999/xlink" width="32" height="32"><defs><style type="text/css"></style></defs><path d="M370.119017 543.927782c6.568001 0 11.798076 6.324742 11.798075 14.230669 0 7.905927-5.230075 14.230669-11.798075 14.230669-6.568001 0-11.798076-6.324742-11.798076-14.230669 0-7.905927 5.230075-14.230669 11.798076-14.230669zM650.353724 543.927782c6.568001 0 11.798076 6.324742 11.798076 14.230669 0 7.905927-5.230075 14.230669-11.798076 14.230669-6.568001 0-11.798076-6.324742-11.798076-14.230669 0-7.905927 5.230075-14.230669 11.798076-14.230669z" fill="#5B5C5C" p-id="16182"></path><path d="M820.148711 466.692956c-19.339114 0-36.367265 12.284594-45.854377 30.772301-32.231857-70.301936-99.371422-135.373797-182.322841-162.253949-44.75971-17.879558-76.140159-52.422378-80.032308-92.560162-3.892149 40.259413-35.272598 74.680603-80.032308 92.560162-82.951419 26.758522-150.090985 91.952013-182.322841 162.253949-9.487112-18.487706-26.393633-30.772301-45.854377-30.772301-29.677634 0-53.760304 29.069486-53.760304 64.950232s24.08267 64.950232 53.760304 64.950232c9.000594 0 17.514669-2.675852 25.055707-7.419409 2.554223 116.399572 128.319278 191.931583 283.153819 192.174843 154.834541-0.243259 280.599596-75.77527 283.153819-192.174843 7.419408 4.743556 16.055113 7.419408 25.055707 7.419409 29.677634 0 53.760304-29.069486 53.760304-64.950232 0.12163-35.880746-23.961041-64.950232-53.760304-64.950232zM228.298848 551.955339c-2.554223 9.365483-13.74415 13.379261-25.055707 8.878964-11.311557-4.378667-18.487706-15.568595-15.933484-24.934077 2.554223-9.365483 13.74415-13.379261 25.055707-8.878965 11.311557 4.378667 18.366077 15.568595 15.933484 24.934078z m283.640337 196.918399c-124.18387-0.243259-224.771588-58.990379-224.771588-143.158095 0-1.824445 0.12163-3.52726 0.12163-5.230075 0-0.608148 0-1.094667 0.121629-1.702815 0.12163-1.216296 0.243259-2.432593 0.24326-3.527259 0.12163-1.581185 0.364889-3.162371 0.608148-4.743557 0-0.12163 0-0.364889 0.12163-0.486518 2.554223-16.541632 8.878964-41.840599 18.609336-56.314527 23.231263-33.813042 64.706972-56.192897 111.899275-56.192897 36.367265 0 69.328899 13.379261 93.16831 34.907709 23.839411-21.528448 56.679416-34.907709 93.16831-34.907709 47.313933 0 88.668013 22.501485 111.899275 56.192897 9.730372 14.595558 16.055113 39.772895 18.609336 56.314527 0 0.12163 0 0.364889 0.12163 0.486518 0.243259 1.581185 0.364889 3.162371 0.608148 4.743557 0.12163 1.216296 0.243259 2.310963 0.243259 3.527259 0 0.608148 0.12163 1.094667 0.12163 1.702815 0.12163 1.702815 0.12163 3.52726 0.12163 5.230075-0.12163 84.167716-100.709348 142.914835-225.014848 143.158095z m308.817674-188.039435c-11.311557 4.378667-22.501485 0.486519-25.055707-8.878964-2.554223-9.365483 4.621927-20.55541 15.933484-24.934078 11.311557-4.378667 22.501485-0.486519 25.055707 8.878965 2.432593 9.243853-4.621927 20.433781-15.933484 24.934077z" fill="#5B5C5C" p-id="16183"></path></svg>