<?xml version="1.0" standalone="no"?><!DOCTYPE svg PUBLIC "-//W3C//DTD SVG 1.1//EN" "http://www.w3.org/Graphics/SVG/1.1/DTD/svg11.dtd"><svg t="1521399175540" class="icon" style="" viewBox="0 0 1025 1024" version="1.1" xmlns="http://www.w3.org/2000/svg" p-id="10574" xmlns:xlink="http://www.w3.org/1999/xlink" width="32.03125" height="32"><defs><style type="text/css"></style></defs><path d="M1004.728 466.4l-447.104-447.072c-25.728-25.76-67.488-25.76-93.28 0l-103.872 103.872 78.176 78.176c12.544-5.984 26.56-9.376 41.376-9.376 53.024 0 96 42.976 96 96 0 14.816-3.36 28.864-9.376 41.376l127.968 127.968c12.544-5.984 26.56-9.376 41.376-9.376 53.024 0 96 42.976 96 96s-42.976 96-96 96-96-42.976-96-96c0-14.816 3.36-28.864 9.376-41.376l-127.968-127.968c-3.04 1.472-6.176 2.752-9.376 3.872l0 266.976c37.28 13.184 64 48.704 64 90.528 0 53.024-42.976 96-96 96s-96-42.976-96-96c0-41.792 26.72-77.344 64-90.528l0-266.976c-37.28-13.184-64-48.704-64-90.528 0-14.816 3.36-28.864 9.376-41.376l-78.176-78.176-295.904 295.872c-25.76 25.792-25.76 67.52 0 93.28l447.136 447.072c25.728 25.76 67.488 25.76 93.28 0l444.992-444.992c25.76-25.76 25.76-67.552 0-93.28z" p-id="10575"></path></svg>