<?xml version="1.0" standalone="no"?><!DOCTYPE svg PUBLIC "-//W3C//DTD SVG 1.1//EN" "http://www.w3.org/Graphics/SVG/1.1/DTD/svg11.dtd"><svg t="1521396804016" class="icon" style="" viewBox="0 0 1024 1024" version="1.1" xmlns="http://www.w3.org/2000/svg" p-id="6764" xmlns:xlink="http://www.w3.org/1999/xlink" width="32" height="32"><defs><style type="text/css"></style></defs><path d="M512.91 564.132c-66 0-128.05-25.702-174.72-72.37-46.668-46.67-72.37-108.721-72.37-174.721s25.702-128.05 72.37-174.72c46.67-46.67 108.72-72.372 174.72-72.372s128.051 25.703 174.721 72.371c46.669 46.67 72.371 108.72 72.371 174.72s-25.702 128.051-72.37 174.721c-46.67 46.669-108.721 72.371-174.721 72.371z m0-458.582c-56.49 0-109.6 21.999-149.545 61.944S301.42 260.549 301.42 317.04s21.999 109.6 61.944 149.546 93.055 61.943 149.546 61.943c56.491 0 109.601-21.999 149.546-61.943C702.402 426.64 724.4 373.53 724.4 317.04s-22-109.602-61.944-149.546c-39.945-39.945-93.055-61.944-149.546-61.944z m427.44 844.516c-7.618 0-14.666-4.928-17.014-12.59-13.387-43.687-33.597-84.835-60.07-122.303a433.958 433.958 0 0 0-93.954-96.717C694.064 661.942 604.4 632.07 510.015 632.07c-94.308 0-183.913 29.827-259.127 86.257a433.97 433.97 0 0 0-93.94 96.583c-26.477 37.417-46.707 78.512-60.127 122.146-2.89 9.398-12.85 14.672-22.247 11.782-9.397-2.89-14.67-12.85-11.78-22.247 14.53-47.249 36.432-91.742 65.095-132.245A469.503 469.503 0 0 1 229.523 689.85c39.618-29.723 83.39-52.83 130.104-68.68 48.31-16.39 98.91-24.701 150.389-24.701 51.52 0 102.154 8.323 150.5 24.74 46.746 15.874 90.545 39.015 130.177 68.78a469.549 469.549 0 0 1 101.65 104.641c28.658 40.56 50.538 85.11 65.034 132.416 2.88 9.4-2.405 19.355-11.805 22.234a17.822 17.822 0 0 1-5.222 0.786z" p-id="6765"></path></svg>