<?xml version="1.0" encoding="utf-8"?>
<!-- Svg Vector Icons : http://www.sfont.cn -->
<!DOCTYPE svg PUBLIC "-//W3C//DTD SVG 1.1//EN" "http://www.w3.org/Graphics/SVG/1.1/DTD/svg11.dtd">
<svg version="1.1" xmlns="http://www.w3.org/2000/svg" xmlns:xlink="http://www.w3.org/1999/xlink" x="0px" y="0px" viewBox="0 0 1000 1000" enable-background="new 0 0 1000 1000" xml:space="preserve">
<metadata> Svg Vector Icons : http://www.sfont.cn </metadata>
<g><path d="M292,562.2c1.4,0,2.5,1.4,2.5,3c0,1.7-1.1,3-2.5,3V562.2z"/><path d="M671.3,562.2c1.4,0,2.5,1.4,2.5,3c0,1.7-1.1,3-2.5,3V562.2z"/><path d="M917.1,439c-26.2,0-49.2,16.6-62,41.5C811.5,385.8,720.6,298.1,608.4,262c-60.6-24.2-103.1-70.6-108.4-124.8c-5.3,54.2-47.8,100.6-108.4,124.8c-112.3,36.1-203.1,123.9-246.8,218.6C132,455.6,109,439,82.8,439C42.6,439,10,478.1,10,526.5c0,48.3,32.6,87.5,72.8,87.5c12.2,0,23.8-3.6,33.9-10c3.5,156.9,173.6,258.7,383.3,258.9c209.6-0.3,379.8-102.1,383.3-258.9c10.1,6.4,21.6,10,33.9,10c40.2,0,72.8-39.2,72.8-87.5C990,478.1,957.4,439,917.1,439L917.1,439z M116,553.8c-3.4,12.6-18.6,18-33.9,12c-15.3-6-25-21-21.5-33.6c3.4-12.6,18.6-18,33.9-12C109.7,526.1,119.4,541.2,116,553.8L116,553.8z M500,819.2c-168.1-0.3-304.3-79.5-304.3-192.9c0-2.4,0.1-4.7,0.2-7.1c0-0.8,0.1-1.5,0.1-2.3c0.1-1.6,0.2-3.2,0.4-4.8c0.2-2.1,0.5-4.3,0.8-6.4c0-0.2,0.1-0.4,0.1-0.6c3.4-22.3,12-56.3,25.1-75.9c31.4-45.5,87.5-75.8,151.5-75.8c49.3,0,93.8,18,126,47c32.3-29,76.8-47,126.1-47c64,0,120.1,30.3,151.5,75.8c13.1,19.6,21.8,53.6,25.1,75.9c0,0.2,0.1,0.4,0.1,0.6c0.3,2.1,0.6,4.2,0.8,6.4c0.2,1.6,0.3,3.2,0.4,4.8c0,0.8,0.1,1.5,0.1,2.3c0.1,2.4,0.2,4.7,0.2,7.1C804.3,739.7,668.1,818.9,500,819.2L500,819.2z M917.9,565.8c-15.3,6-30.5,0.6-33.9-12c-3.4-12.6,6.2-27.6,21.5-33.6c15.3-6,30.5-0.6,33.9,12C942.9,544.8,933.2,559.8,917.9,565.8L917.9,565.8z"/></g>
</svg>